{"title":"The East (2013) BDRip (rus)","uid":8906069,"size":2200711168,"categoryP":"video","categoryS":"movies","magnet":"?xt=urn:btih:605b38c4c37ff44ba18e5ff6aa6c721837916011&amp;dn=The+East+%282013%29+BDRip+%28rus%29&amp;tr=udp%3A%2F%2Ftracker.openbittorrent.com%3A80&amp;tr=udp%3A%2F%2Fopen.demonii.com%3A1337&amp;tr=udp%3A%2F%2Ftracker.coppersurfer.tk%3A6969&amp;tr=udp%3A%2F%2Fexodus.desync.com%3A6969","seeders":0,"leechers":0,"uploader":"yfjfrj","files":-1,"time":1378908199,"description":"General\nComplete name                            : C:UsersIvanDesktopVostok.2013.L.HDRip.2.05GB_sample.avi\nFormat                                   : AVI\nFormat/Info                              : Audio Video Interleave\nFile size                                : 33.0 MiB\nDuration                                 : 1mn 47s\nOverall bit rate                         : 2 581 Kbps\nWriting application                      : VirtualDubMod 1.5.10.2 (build 2542/release)\nWriting library                          : VirtualDubMod build 2542/release\n\nVideo\nID                                       : 0\nFormat                                   : MPEG-4 Visual\nFormat profile                           : Advanced Simple@L5\nFormat settings, BVOP                    : 1\nFormat settings, QPel                    : No\nFormat settings, GMC                     : No warppoints\nFormat settings, Matrix                  : Default (H.263)\nCodec ID                                 : XVID\nCodec ID/Hint                            : XviD\nDuration                                 : 1mn 47s\nBit rate                                 : 2 123 Kbps\nWidth                                    : 720 pixels\nHeight                                   : 304 pixels\nDisplay aspect ratio                     : 2.35:1\nFrame rate                               : 23.976 fps\nColor space                              : YUV\nChroma subsampling                       : 4:2:0\nBit depth                                : 8 bits\nScan type                                : Progressive\nCompression mode                         : Lossy\nBits/(Pixel*Frame)                       : 0.404\nStream size                              : 27.1 MiB (82%)\nWriting library                          : XviD 1.2.1 (UTC 2008-12-04)\n\nAudio\nID                                       : 1\nFormat                                   : AC-3\nFormat/Info                              : Audio Coding 3\nMode extension                           : CM (complete main)\nFormat settings, Endianness              : Big\nCodec ID                                 : 2000\nDuration                                 : 1mn 47s\nBit rate mode                            : Constant\nBit rate                                 : 448 Kbps\nChannel(s)                               : 6 channels\nChannel positions                        : Front: L C R, Side: L R, LFE\nSampling rate                            : 48.0 KHz\nBit depth                                : 16 bits\nCompression mode                         : Lossy\nDelay relative to video                  : 25ms\nStream size                              : 5.72 MiB (17%)\nAlignment                                : Split accross interleaves\nInterleave, duration                     : 42 ms (1.00 video frame)\nInterleave, preload duration             : 500 ms\n","torrent":{"xt":"urn:btih:605b38c4c37ff44ba18e5ff6aa6c721837916011","amp;dn":"The+East+%282013%29+BDRip+%28rus%29","amp;tr":["udp%3A%2F%2Ftracker.openbittorrent.com%3A80","udp%3A%2F%2Fopen.demonii.com%3A1337","udp%3A%2F%2Ftracker.coppersurfer.tk%3A6969","udp%3A%2F%2Fexodus.desync.com%3A6969"],"infoHash":"605b38c4c37ff44ba18e5ff6aa6c721837916011","infoHashBuffer":{"type":"Buffer","data":[96,91,56,196,195,127,244,75,161,142,95,246,170,108,114,24,55,145,96,17]},"announce":[],"urlList":[]}}